<svg width="50" height="50" viewBox="0 0 50 50" fill="none" xmlns="http://www.w3.org/2000/svg">
<rect width="50" height="50" rx="10" fill="#B6B948"/>
<path d="M13.625 38.9446C12.6281 38.9446 11.775 38.6169 11.0657 37.9615C10.3552 37.305 10 36.5162 10 35.5951V20.5225C10 19.9922 10.1287 19.4897 10.3861 19.0152C10.6422 18.5407 10.9969 18.15 11.45 17.8429L22.325 10.3066C22.9594 9.86002 23.6844 9.63672 24.5 9.63672C25.3156 9.63672 26.0406 9.86002 26.675 10.3066L37.55 17.8429C38.0031 18.15 38.3584 18.5407 38.6157 19.0152C38.8719 19.4897 39 19.9922 39 20.5225V35.5951C39 36.5162 38.6454 37.305 37.9361 37.9615C37.2256 38.6169 36.3719 38.9446 35.375 38.9446H13.625ZM13.625 35.5951H35.375V20.5225L24.5 12.9862L13.625 20.5225V35.5951ZM20.875 27.2214V33.083C20.875 33.3063 20.9656 33.5017 21.1469 33.6692C21.3281 33.8366 21.5396 33.9204 21.7812 33.9204C22.0229 33.9204 22.2344 33.8366 22.4156 33.6692C22.5969 33.5017 22.6875 33.3063 22.6875 33.083V27.2214C23.4427 27.2214 24.0843 26.9769 24.6124 26.4879C25.1416 26 25.4062 25.4071 25.4062 24.7093V20.5225C25.4062 20.2992 25.3156 20.1038 25.1344 19.9363C24.9531 19.7689 24.7417 19.6851 24.5 19.6851C24.2583 19.6851 24.0469 19.7689 23.8656 19.9363C23.6844 20.1038 23.5938 20.2992 23.5938 20.5225V24.7093H22.6875V20.5225C22.6875 20.2992 22.5969 20.1038 22.4156 19.9363C22.2344 19.7689 22.0229 19.6851 21.7812 19.6851C21.5396 19.6851 21.3281 19.7689 21.1469 19.9363C20.9656 20.1038 20.875 20.2992 20.875 20.5225V24.7093H19.9688V20.5225C19.9688 20.2992 19.8781 20.1038 19.6969 19.9363C19.5156 19.7689 19.3042 19.6851 19.0625 19.6851C18.8208 19.6851 18.6094 19.7689 18.4281 19.9363C18.2469 20.1038 18.1562 20.2992 18.1562 20.5225V24.7093C18.1562 25.4071 18.4209 26 18.9501 26.4879C19.4782 26.9769 20.1198 27.2214 20.875 27.2214ZM29.0312 33.9204C29.2729 33.9204 29.4844 33.8366 29.6656 33.6692C29.8469 33.5017 29.9375 33.3063 29.9375 33.083V20.69C29.9375 20.4667 29.8469 20.2713 29.6656 20.1038C29.4844 19.9363 29.2729 19.8526 29.0312 19.8526C28.1854 19.8526 27.5208 20.1736 27.0375 20.8156C26.5542 21.4576 26.3125 22.1972 26.3125 23.0346V27.2214C26.3125 27.4447 26.4031 27.6401 26.5844 27.8076C26.7656 27.9751 26.9771 28.0588 27.2188 28.0588H28.125V33.083C28.125 33.3063 28.2156 33.5017 28.3969 33.6692C28.5781 33.8366 28.7896 33.9204 29.0312 33.9204Z" fill="black"/>
</svg>
